<?xml version="1.0" standalone="no"?><!DOCTYPE svg PUBLIC "-//W3C//DTD SVG 1.1//EN" "http://www.w3.org/Graphics/SVG/1.1/DTD/svg11.dtd"><svg t="1700461231463" class="icon" viewBox="0 0 1024 1024" version="1.1" xmlns="http://www.w3.org/2000/svg" p-id="1475" xmlns:xlink="http://www.w3.org/1999/xlink" width="16" height="16"><path d="M886.826667 669.781333c-5.248 0.341333-10.624 0.512-15.914667 0.512h-5.290667a255.146667 255.146667 0 0 0 6.442667-92.928 254.72 254.72 0 0 1-102.912 26.325334 252.757333 252.757333 0 0 0 5.034667-50.688c0-18.346667-1.92-36.565333-5.802667-54.485334a254.805333 254.805333 0 0 1-86.698667 31.744l-0.213333-0.256a252.245333 252.245333 0 0 0 4.949333-50.133333 257.28 257.28 0 0 0-4.138666-46.165333 288.469333 288.469333 0 0 1-209.28 89.472 288 288 0 0 1-132.693334-32.170667c18.645333-7.253333 36.394667-16.64 52.864-28.032a257.621333 257.621333 0 0 1-78.933333-405.717333c-39.338667 17.92-76.245333 40.874667-109.738667 68.266666a499.114667 499.114667 0 0 0-122.24 625.749334 255.658667 255.658667 0 0 1 18.218667-70.058667 476.714667 476.714667 0 0 0 351.018667 285.994667 254.848 254.848 0 0 1-32.853334-56.576c41.301333 13.397333 84.352 20.736 127.786667 21.802666 3.84 0 7.68 0.170667 11.562667 0.170667a449.109333 449.109333 0 0 0 199.04-46.165333 253.013333 253.013333 0 0 1-29.610667-19.584 429.653333 429.653333 0 0 0 232.106667-212.053334c-23.381333 8.490667-47.872 13.525333-72.704 14.933334z" p-id="1476" fill="#e6e6e6"></path><path d="M1001.642667 432.896a427.605333 427.605333 0 0 0-18.645334-96.256 168.533333 168.533333 0 0 1-14.933333 30.378667A385.152 385.152 0 0 0 810.752 110.933333a383.018667 383.018667 0 0 0-108.8-54.101333 287.957333 287.957333 0 0 1 59.392 153.386667v0.981333a224.256 224.256 0 0 1 0.768 15.829333v6.741334a288.128 288.128 0 0 1-51.797333 165.248 258.986667 258.986667 0 0 1 3.072 89.770666 252.885333 252.885333 0 0 0 80.341333-34.432 256.426667 256.426667 0 0 1 9.941333 71.296c0 12.970667-0.938667 25.898667-2.901333 38.698667a255.274667 255.274667 0 0 0 98.346667-31.146667 256 256 0 0 1 4.053333 45.653334c0 17.877333-1.834667 35.669333-5.504 53.12a255.573333 255.573333 0 0 0 77.952-15.573334 427.52 427.52 0 0 0 27.050667-150.101333 352.682667 352.682667 0 0 0-0.981334-33.365333z" p-id="1477" fill="#e6e6e6"></path></svg>